<?xml version="1.0" encoding="UTF-8" standalone="no"?><svg xmlns="http://www.w3.org/2000/svg" xmlns:xlink="http://www.w3.org/1999/xlink" contentScriptType="application/ecmascript" contentStyleType="text/css" height="67px" preserveAspectRatio="none" style="width:590px;height:67px;" version="1.1" viewBox="0 0 590 67" width="590px" zoomAndPan="magnify"><defs><filter height="300%" id="fmevjqe7h92d0" width="300%" x="-1" y="-1"><feGaussianBlur result="blurOut" stdDeviation="2.0"/><feColorMatrix in="blurOut" result="blurOut2" type="matrix" values="0 0 0 0 0 0 0 0 0 0 0 0 0 0 0 0 0 0 .4 0"/><feOffset dx="4.0" dy="4.0" in="blurOut2" result="blurOut3"/><feBlend in="SourceGraphic" in2="blurOut3" mode="normal"/></filter></defs><g><!--class Ingestor--><rect fill="#FEFECE" filter="url(#fmevjqe7h92d0)" height="48" id="Ingestor" style="stroke: #A80036; stroke-width: 1.5;" width="84" x="195" y="8"/><ellipse cx="210" cy="24" fill="#A9DCDF" rx="11" ry="11" style="stroke: #A80036; stroke-width: 1.0;"/><path d="M210.1094,19.3438 L208.9531,24.4219 L211.2813,24.4219 L210.1094,19.3438 Z M208.625,17.1094 L211.6094,17.1094 L214.9688,29.5 L212.5156,29.5 L211.75,26.4375 L208.4688,26.4375 L207.7188,29.5 L205.2813,29.5 L208.625,17.1094 Z "/><text fill="#000000" font-family="sans-serif" font-size="12" font-style="italic" lengthAdjust="spacingAndGlyphs" textLength="52" x="224" y="28.1543">Ingestor</text><line style="stroke: #A80036; stroke-width: 1.5;" x1="196" x2="278" y1="40" y2="40"/><line style="stroke: #A80036; stroke-width: 1.5;" x1="196" x2="278" y1="48" y2="48"/><!--class ExperimentIngestor--><rect fill="#FEFECE" filter="url(#fmevjqe7h92d0)" height="48" id="ExperimentIngestor" style="stroke: #A80036; stroke-width: 1.5;" width="154" x="6" y="8"/><ellipse cx="21" cy="24" fill="#ADD1B2" rx="11" ry="11" style="stroke: #A80036; stroke-width: 1.0;"/><path d="M23.9688,29.6406 Q23.3906,29.9375 22.75,30.0781 Q22.1094,30.2344 21.4063,30.2344 Q18.9063,30.2344 17.5781,28.5938 Q16.2656,26.9375 16.2656,23.8125 Q16.2656,20.6875 17.5781,19.0313 Q18.9063,17.375 21.4063,17.375 Q22.1094,17.375 22.75,17.5313 Q23.4063,17.6875 23.9688,17.9844 L23.9688,20.7031 Q23.3438,20.125 22.75,19.8594 Q22.1563,19.5781 21.5313,19.5781 Q20.1875,19.5781 19.5,20.6563 Q18.8125,21.7188 18.8125,23.8125 Q18.8125,25.9063 19.5,26.9844 Q20.1875,28.0469 21.5313,28.0469 Q22.1563,28.0469 22.75,27.7813 Q23.3438,27.5 23.9688,26.9219 L23.9688,29.6406 Z "/><text fill="#000000" font-family="sans-serif" font-size="12" lengthAdjust="spacingAndGlyphs" textLength="122" x="35" y="28.1543">ExperimentIngestor</text><line style="stroke: #A80036; stroke-width: 1.5;" x1="7" x2="159" y1="40" y2="40"/><line style="stroke: #A80036; stroke-width: 1.5;" x1="7" x2="159" y1="48" y2="48"/><!--class Validator--><rect fill="#FEFECE" filter="url(#fmevjqe7h92d0)" height="48" id="Validator" style="stroke: #A80036; stroke-width: 1.5;" width="88" x="491" y="8"/><ellipse cx="506" cy="24" fill="#A9DCDF" rx="11" ry="11" style="stroke: #A80036; stroke-width: 1.0;"/><path d="M506.1094,19.3438 L504.9531,24.4219 L507.2813,24.4219 L506.1094,19.3438 Z M504.625,17.1094 L507.6094,17.1094 L510.9688,29.5 L508.5156,29.5 L507.75,26.4375 L504.4688,26.4375 L503.7188,29.5 L501.2813,29.5 L504.625,17.1094 Z "/><text fill="#000000" font-family="sans-serif" font-size="12" font-style="italic" lengthAdjust="spacingAndGlyphs" textLength="56" x="520" y="28.1543">Validator</text><line style="stroke: #A80036; stroke-width: 1.5;" x1="492" x2="578" y1="40" y2="40"/><line style="stroke: #A80036; stroke-width: 1.5;" x1="492" x2="578" y1="48" y2="48"/><!--class JSShemaValidator--><rect fill="#FEFECE" filter="url(#fmevjqe7h92d0)" height="48" id="JSShemaValidator" style="stroke: #A80036; stroke-width: 1.5;" width="142" x="314" y="8"/><ellipse cx="329" cy="24" fill="#ADD1B2" rx="11" ry="11" style="stroke: #A80036; stroke-width: 1.0;"/><path d="M331.9688,29.6406 Q331.3906,29.9375 330.75,30.0781 Q330.1094,30.2344 329.4063,30.2344 Q326.9063,30.2344 325.5781,28.5938 Q324.2656,26.9375 324.2656,23.8125 Q324.2656,20.6875 325.5781,19.0313 Q326.9063,17.375 329.4063,17.375 Q330.1094,17.375 330.75,17.5313 Q331.4063,17.6875 331.9688,17.9844 L331.9688,20.7031 Q331.3438,20.125 330.75,19.8594 Q330.1563,19.5781 329.5313,19.5781 Q328.1875,19.5781 327.5,20.6563 Q326.8125,21.7188 326.8125,23.8125 Q326.8125,25.9063 327.5,26.9844 Q328.1875,28.0469 329.5313,28.0469 Q330.1563,28.0469 330.75,27.7813 Q331.3438,27.5 331.9688,26.9219 L331.9688,29.6406 Z "/><text fill="#000000" font-family="sans-serif" font-size="12" lengthAdjust="spacingAndGlyphs" textLength="110" x="343" y="28.1543">JSShemaValidator</text><line style="stroke: #A80036; stroke-width: 1.5;" x1="315" x2="455" y1="40" y2="40"/><line style="stroke: #A80036; stroke-width: 1.5;" x1="315" x2="455" y1="48" y2="48"/><!--link ExperimentIngestor to Ingestor--><path d="M180.4891,32 C185.2446,32 190,32 194.7555,32 " fill="none" id="ExperimentIngestor-Ingestor" style="stroke: #A80036; stroke-width: 1.0;"/><polygon fill="none" points="180.3008,38.9999,160.3008,32,180.3007,24.9999,180.3008,38.9999" style="stroke: #A80036; stroke-width: 1.0;"/><!--link JSShemaValidator to Validator--><path d="M476.3024,32 C481.1943,32 486.0861,32 490.978,32 " fill="none" id="JSShemaValidator-Validator" style="stroke: #A80036; stroke-width: 1.0;"/><polygon fill="none" points="476.1914,38.9999,456.1914,32,476.1914,24.9999,476.1914,38.9999" style="stroke: #A80036; stroke-width: 1.0;"/><!--
@startuml Splash_Classes

abstract Ingestor
ExperimentIngestor <|- Ingestor


abstract Validator
JSShemaValidator <|- Validator
@enduml

PlantUML version 1.2019.06(Fri May 24 10:10:25 PDT 2019)
(GPL source distribution)
Java Runtime: OpenJDK Runtime Environment
JVM: OpenJDK 64-Bit Server VM
Java Version: 11.0.3+7-Ubuntu-1ubuntu218.04.1
Operating System: Linux
OS Version: 4.18.0-25-generic
Default Encoding: UTF-8
Language: en
Country: US
--></g></svg>