<?xml version="1.0" encoding="UTF-8" standalone="no"?><svg xmlns="http://www.w3.org/2000/svg" xmlns:xlink="http://www.w3.org/1999/xlink" contentScriptType="application/ecmascript" contentStyleType="text/css" height="383px" preserveAspectRatio="none" style="width:382px;height:383px;" version="1.1" viewBox="0 0 382 383" width="382px" zoomAndPan="magnify"><defs><filter height="300%" id="f10uwfi9vn73vl" width="300%" x="-1" y="-1"><feGaussianBlur result="blurOut" stdDeviation="2.0"/><feColorMatrix in="blurOut" result="blurOut2" type="matrix" values="0 0 0 0 0 0 0 0 0 0 0 0 0 0 0 0 0 0 .4 0"/><feOffset dx="4.0" dy="4.0" in="blurOut2" result="blurOut3"/><feBlend in="SourceGraphic" in2="blurOut3" mode="normal"/></filter></defs><g><!--entity Beamline--><rect fill="#FEFECE" filter="url(#f10uwfi9vn73vl)" height="46.2969" style="stroke: #A80036; stroke-width: 1.5;" width="104" x="15.5" y="8"/><rect fill="#FEFECE" height="10" style="stroke: #A80036; stroke-width: 1.5;" width="15" x="99.5" y="13"/><rect fill="#FEFECE" height="2" style="stroke: #A80036; stroke-width: 1.5;" width="4" x="97.5" y="15"/><rect fill="#FEFECE" height="2" style="stroke: #A80036; stroke-width: 1.5;" width="4" x="97.5" y="19"/><text fill="#000000" font-family="sans-serif" font-size="14" lengthAdjust="spacingAndGlyphs" textLength="64" x="30.5" y="40.9951">Beamline</text><!--entity Databroker--><rect fill="#FEFECE" filter="url(#f10uwfi9vn73vl)" height="46.2969" style="stroke: #A80036; stroke-width: 1.5;" width="117" x="9" y="114"/><rect fill="#FEFECE" height="10" style="stroke: #A80036; stroke-width: 1.5;" width="15" x="106" y="119"/><rect fill="#FEFECE" height="2" style="stroke: #A80036; stroke-width: 1.5;" width="4" x="104" y="121"/><rect fill="#FEFECE" height="2" style="stroke: #A80036; stroke-width: 1.5;" width="4" x="104" y="125"/><text fill="#000000" font-family="sans-serif" font-size="14" lengthAdjust="spacingAndGlyphs" textLength="77" x="24" y="146.9951">Databroker</text><!--entity RESTBroker--><rect fill="#FEFECE" filter="url(#f10uwfi9vn73vl)" height="46.2969" style="stroke: #A80036; stroke-width: 1.5;" width="123" x="6" y="220"/><rect fill="#FEFECE" height="10" style="stroke: #A80036; stroke-width: 1.5;" width="15" x="109" y="225"/><rect fill="#FEFECE" height="2" style="stroke: #A80036; stroke-width: 1.5;" width="4" x="107" y="227"/><rect fill="#FEFECE" height="2" style="stroke: #A80036; stroke-width: 1.5;" width="4" x="107" y="231"/><text fill="#000000" font-family="sans-serif" font-size="14" lengthAdjust="spacingAndGlyphs" textLength="83" x="21" y="252.9951">RESTBroker</text><!--entity Splash--><rect fill="#FEFECE" filter="url(#f10uwfi9vn73vl)" height="46.2969" style="stroke: #A80036; stroke-width: 1.5;" width="86" x="171.5" y="326"/><rect fill="#FEFECE" height="10" style="stroke: #A80036; stroke-width: 1.5;" width="15" x="237.5" y="331"/><rect fill="#FEFECE" height="2" style="stroke: #A80036; stroke-width: 1.5;" width="4" x="235.5" y="333"/><rect fill="#FEFECE" height="2" style="stroke: #A80036; stroke-width: 1.5;" width="4" x="235.5" y="337"/><text fill="#000000" font-family="sans-serif" font-size="14" lengthAdjust="spacingAndGlyphs" textLength="46" x="186.5" y="358.9951">Splash</text><!--entity UserHub--><rect fill="#FEFECE" filter="url(#f10uwfi9vn73vl)" height="46.2969" style="stroke: #A80036; stroke-width: 1.5;" width="100" x="164.5" y="220"/><rect fill="#FEFECE" height="10" style="stroke: #A80036; stroke-width: 1.5;" width="15" x="244.5" y="225"/><rect fill="#FEFECE" height="2" style="stroke: #A80036; stroke-width: 1.5;" width="4" x="242.5" y="227"/><rect fill="#FEFECE" height="2" style="stroke: #A80036; stroke-width: 1.5;" width="4" x="242.5" y="231"/><text fill="#000000" font-family="sans-serif" font-size="14" lengthAdjust="spacingAndGlyphs" textLength="60" x="179.5" y="252.9951">UserHub</text><!--entity User--><rect fill="#FEFECE" filter="url(#f10uwfi9vn73vl)" height="46.2969" style="stroke: #A80036; stroke-width: 1.5;" width="72" x="299.5" y="220"/><rect fill="#FEFECE" height="10" style="stroke: #A80036; stroke-width: 1.5;" width="15" x="351.5" y="225"/><rect fill="#FEFECE" height="2" style="stroke: #A80036; stroke-width: 1.5;" width="4" x="349.5" y="227"/><rect fill="#FEFECE" height="2" style="stroke: #A80036; stroke-width: 1.5;" width="4" x="349.5" y="231"/><text fill="#000000" font-family="sans-serif" font-size="14" lengthAdjust="spacingAndGlyphs" textLength="32" x="314.5" y="252.9951">User</text><!--link Beamline to Databroker--><path d="M67.5,54.0004 C67.5,70.003 67.5,91.4461 67.5,108.528 " fill="none" id="Beamline-Databroker" style="stroke: #A80036; stroke-width: 1.0; stroke-dasharray: 7.0,7.0;"/><polygon fill="#A80036" points="67.5,113.6784,71.5,104.6784,67.5,108.6784,63.5,104.6784,67.5,113.6784" style="stroke: #A80036; stroke-width: 1.0;"/><!--link Databroker to RESTBroker--><path d="M67.5,160.0004 C67.5,176.003 67.5,197.4461 67.5,214.528 " fill="none" id="Databroker-RESTBroker" style="stroke: #A80036; stroke-width: 1.0; stroke-dasharray: 7.0,7.0;"/><polygon fill="#A80036" points="67.5,219.6784,71.5,210.6784,67.5,214.6784,63.5,210.6784,67.5,219.6784" style="stroke: #A80036; stroke-width: 1.0;"/><!--link RESTBroker to Splash--><path d="M99.3968,266.0004 C122.6254,282.7503 154.1201,305.4607 178.2931,322.8917 " fill="none" id="RESTBroker-Splash" style="stroke: #A80036; stroke-width: 1.0; stroke-dasharray: 7.0,7.0;"/><polygon fill="#A80036" points="182.4119,325.8617,177.4513,317.3533,178.3563,322.9373,172.7723,323.8423,182.4119,325.8617" style="stroke: #A80036; stroke-width: 1.0;"/><!--link UserHub to Splash--><path d="M214.5,266.0004 C214.5,282.003 214.5,303.4461 214.5,320.528 " fill="none" id="UserHub-Splash" style="stroke: #A80036; stroke-width: 1.0; stroke-dasharray: 7.0,7.0;"/><polygon fill="#A80036" points="214.5,325.6784,218.5,316.6784,214.5,320.6784,210.5,316.6784,214.5,325.6784" style="stroke: #A80036; stroke-width: 1.0;"/><!--link User to Splash--><path d="M309.2448,266.0004 C290.3479,282.5548 264.8048,304.9314 245.0021,322.2791 " fill="none" id="User-Splash" style="stroke: #A80036; stroke-width: 1.0; stroke-dasharray: 7.0,7.0;"/><polygon fill="#A80036" points="241.1218,325.6784,250.5273,322.7565,244.8827,322.3836,245.2556,316.7391,241.1218,325.6784" style="stroke: #A80036; stroke-width: 1.0;"/><!--
@startuml sample_deployment
skinparam componentStyle uml2

[Beamline] ..> [Databroker]
[Databroker] ..> [RESTBroker]
[RESTBroker] ..> [Splash]
[UserHub] ..> [Splash]
[User] ..> [Splash]

@enduml

PlantUML version 1.2019.06(Fri May 24 10:10:25 PDT 2019)
(GPL source distribution)
Java Runtime: OpenJDK Runtime Environment
JVM: OpenJDK 64-Bit Server VM
Java Version: 11.0.3+7-Ubuntu-1ubuntu218.04.1
Operating System: Linux
OS Version: 4.18.0-25-generic
Default Encoding: UTF-8
Language: en
Country: US
--></g></svg>