<?xml version="1.0" encoding="UTF-8" standalone="no"?><svg xmlns="http://www.w3.org/2000/svg" xmlns:xlink="http://www.w3.org/1999/xlink" contentScriptType="application/ecmascript" contentStyleType="text/css" height="899px" preserveAspectRatio="none" style="width:964px;height:899px;" version="1.1" viewBox="0 0 964 899" width="964px" zoomAndPan="magnify"><defs><filter height="300%" id="fri9sb5ymth9q" width="300%" x="-1" y="-1"><feGaussianBlur result="blurOut" stdDeviation="2.0"/><feColorMatrix in="blurOut" result="blurOut2" type="matrix" values="0 0 0 0 0 0 0 0 0 0 0 0 0 0 0 0 0 0 .4 0"/><feOffset dx="4.0" dy="4.0" in="blurOut2" result="blurOut3"/><feBlend in="SourceGraphic" in2="blurOut3" mode="normal"/></filter></defs><g><!--cluster Flask--><rect fill="#FFFFFF" filter="url(#fri9sb5ymth9q)" height="541" style="stroke: #000000; stroke-width: 1.5;" width="580" x="14" y="232"/><path d="M64,233 L64,241.2969 L54,251.2969 L14,251.2969 " fill="none" style="stroke: #000000; stroke-width: 1.5;"/><text fill="#000000" font-family="sans-serif" font-size="14" font-weight="bold" lengthAdjust="spacingAndGlyphs" textLength="40" x="17" y="245.9951">Flask</text><!--entity CRUDMethod--><rect fill="#FEFECE" filter="url(#fri9sb5ymth9q)" height="46.2969" style="stroke: #A80036; stroke-width: 1.5;" width="134" x="289" y="259"/><rect fill="#FEFECE" height="10" style="stroke: #A80036; stroke-width: 1.5;" width="15" x="403" y="264"/><rect fill="#FEFECE" height="2" style="stroke: #A80036; stroke-width: 1.5;" width="4" x="401" y="266"/><rect fill="#FEFECE" height="2" style="stroke: #A80036; stroke-width: 1.5;" width="4" x="401" y="270"/><text fill="#000000" font-family="sans-serif" font-size="14" lengthAdjust="spacingAndGlyphs" textLength="94" x="304" y="291.9951">CRUDMethod</text><!--entity Authenticator--><rect fill="#FEFECE" filter="url(#fri9sb5ymth9q)" height="46.2969" style="stroke: #A80036; stroke-width: 1.5;" width="133" x="22.5" y="489"/><rect fill="#FEFECE" height="10" style="stroke: #A80036; stroke-width: 1.5;" width="15" x="135.5" y="494"/><rect fill="#FEFECE" height="2" style="stroke: #A80036; stroke-width: 1.5;" width="4" x="133.5" y="496"/><rect fill="#FEFECE" height="2" style="stroke: #A80036; stroke-width: 1.5;" width="4" x="133.5" y="500"/><text fill="#000000" font-family="sans-serif" font-size="14" lengthAdjust="spacingAndGlyphs" textLength="93" x="37.5" y="521.9951">Authenticator</text><!--entity PrivilegeChecker--><rect fill="#FEFECE" filter="url(#fri9sb5ymth9q)" height="46.2969" style="stroke: #A80036; stroke-width: 1.5;" width="155" x="190.5" y="489"/><rect fill="#FEFECE" height="10" style="stroke: #A80036; stroke-width: 1.5;" width="15" x="325.5" y="494"/><rect fill="#FEFECE" height="2" style="stroke: #A80036; stroke-width: 1.5;" width="4" x="323.5" y="496"/><rect fill="#FEFECE" height="2" style="stroke: #A80036; stroke-width: 1.5;" width="4" x="323.5" y="500"/><text fill="#000000" font-family="sans-serif" font-size="14" lengthAdjust="spacingAndGlyphs" textLength="115" x="205.5" y="521.9951">PrivilegeChecker</text><!--entity Validator--><rect fill="#FEFECE" filter="url(#fri9sb5ymth9q)" height="46.2969" style="stroke: #A80036; stroke-width: 1.5;" width="99" x="380.5" y="489"/><rect fill="#FEFECE" height="10" style="stroke: #A80036; stroke-width: 1.5;" width="15" x="459.5" y="494"/><rect fill="#FEFECE" height="2" style="stroke: #A80036; stroke-width: 1.5;" width="4" x="457.5" y="496"/><rect fill="#FEFECE" height="2" style="stroke: #A80036; stroke-width: 1.5;" width="4" x="457.5" y="500"/><text fill="#000000" font-family="sans-serif" font-size="14" lengthAdjust="spacingAndGlyphs" textLength="59" x="395.5" y="521.9951">Validator</text><!--entity JSONSchema--><rect fill="#FEFECE" filter="url(#fri9sb5ymth9q)" height="46.2969" style="stroke: #A80036; stroke-width: 1.5;" width="129" x="365.5" y="719"/><rect fill="#FEFECE" height="10" style="stroke: #A80036; stroke-width: 1.5;" width="15" x="474.5" y="724"/><rect fill="#FEFECE" height="2" style="stroke: #A80036; stroke-width: 1.5;" width="4" x="472.5" y="726"/><rect fill="#FEFECE" height="2" style="stroke: #A80036; stroke-width: 1.5;" width="4" x="472.5" y="730"/><text fill="#000000" font-family="sans-serif" font-size="14" lengthAdjust="spacingAndGlyphs" textLength="89" x="380.5" y="751.9951">JSONSchema</text><!--entity DAO--><rect fill="#FEFECE" filter="url(#fri9sb5ymth9q)" height="46.2969" style="stroke: #A80036; stroke-width: 1.5;" width="71" x="514.5" y="489"/><rect fill="#FEFECE" height="10" style="stroke: #A80036; stroke-width: 1.5;" width="15" x="565.5" y="494"/><rect fill="#FEFECE" height="2" style="stroke: #A80036; stroke-width: 1.5;" width="4" x="563.5" y="496"/><rect fill="#FEFECE" height="2" style="stroke: #A80036; stroke-width: 1.5;" width="4" x="563.5" y="500"/><text fill="#000000" font-family="sans-serif" font-size="14" lengthAdjust="spacingAndGlyphs" textLength="31" x="529.5" y="521.9951">DAO</text><!--entity GlobusClient--><rect fill="#FEFECE" filter="url(#fri9sb5ymth9q)" height="46.2969" style="stroke: #A80036; stroke-width: 1.5;" width="128" x="458" y="259"/><rect fill="#FEFECE" height="10" style="stroke: #A80036; stroke-width: 1.5;" width="15" x="566" y="264"/><rect fill="#FEFECE" height="2" style="stroke: #A80036; stroke-width: 1.5;" width="4" x="564" y="266"/><rect fill="#FEFECE" height="2" style="stroke: #A80036; stroke-width: 1.5;" width="4" x="564" y="270"/><text fill="#000000" font-family="sans-serif" font-size="14" lengthAdjust="spacingAndGlyphs" textLength="88" x="473" y="291.9951">GlobusClient</text><!--entity GlobusAPI--><rect fill="#FEFECE" filter="url(#fri9sb5ymth9q)" height="46.2969" style="stroke: #A80036; stroke-width: 1.5;" width="110" x="602" y="366"/><rect fill="#FEFECE" height="10" style="stroke: #A80036; stroke-width: 1.5;" width="15" x="692" y="371"/><rect fill="#FEFECE" height="2" style="stroke: #A80036; stroke-width: 1.5;" width="4" x="690" y="373"/><rect fill="#FEFECE" height="2" style="stroke: #A80036; stroke-width: 1.5;" width="4" x="690" y="377"/><text fill="#000000" font-family="sans-serif" font-size="14" lengthAdjust="spacingAndGlyphs" textLength="70" x="617" y="398.9951">GlobusAPI</text><!--entity Databroker--><rect fill="#FEFECE" filter="url(#fri9sb5ymth9q)" height="46.2969" style="stroke: #A80036; stroke-width: 1.5;" width="117" x="620.5" y="489"/><rect fill="#FEFECE" height="10" style="stroke: #A80036; stroke-width: 1.5;" width="15" x="717.5" y="494"/><rect fill="#FEFECE" height="2" style="stroke: #A80036; stroke-width: 1.5;" width="4" x="715.5" y="496"/><rect fill="#FEFECE" height="2" style="stroke: #A80036; stroke-width: 1.5;" width="4" x="715.5" y="500"/><text fill="#000000" font-family="sans-serif" font-size="14" lengthAdjust="spacingAndGlyphs" textLength="77" x="635.5" y="521.9951">Databroker</text><!--entity MongoDB--><rect fill="#FEFECE" filter="url(#fri9sb5ymth9q)" height="46.2969" style="stroke: #A80036; stroke-width: 1.5;" width="109" x="624.5" y="612"/><rect fill="#FEFECE" height="10" style="stroke: #A80036; stroke-width: 1.5;" width="15" x="713.5" y="617"/><rect fill="#FEFECE" height="2" style="stroke: #A80036; stroke-width: 1.5;" width="4" x="711.5" y="619"/><rect fill="#FEFECE" height="2" style="stroke: #A80036; stroke-width: 1.5;" width="4" x="711.5" y="623"/><text fill="#000000" font-family="sans-serif" font-size="14" lengthAdjust="spacingAndGlyphs" textLength="69" x="639.5" y="644.9951">MongoDB</text><!--entity NGINX--><rect fill="#FEFECE" filter="url(#fri9sb5ymth9q)" height="46.2969" style="stroke: #A80036; stroke-width: 1.5;" width="83" x="749.5" y="8"/><rect fill="#FEFECE" height="10" style="stroke: #A80036; stroke-width: 1.5;" width="15" x="812.5" y="13"/><rect fill="#FEFECE" height="2" style="stroke: #A80036; stroke-width: 1.5;" width="4" x="810.5" y="15"/><rect fill="#FEFECE" height="2" style="stroke: #A80036; stroke-width: 1.5;" width="4" x="810.5" y="19"/><text fill="#000000" font-family="sans-serif" font-size="14" lengthAdjust="spacingAndGlyphs" textLength="43" x="764.5" y="40.9951">NGINX</text><!--entity uWSGI--><rect fill="#FEFECE" filter="url(#fri9sb5ymth9q)" height="46.2969" style="stroke: #A80036; stroke-width: 1.5;" width="85" x="567.5" y="131"/><rect fill="#FEFECE" height="10" style="stroke: #A80036; stroke-width: 1.5;" width="15" x="632.5" y="136"/><rect fill="#FEFECE" height="2" style="stroke: #A80036; stroke-width: 1.5;" width="4" x="630.5" y="138"/><rect fill="#FEFECE" height="2" style="stroke: #A80036; stroke-width: 1.5;" width="4" x="630.5" y="142"/><text fill="#000000" font-family="sans-serif" font-size="14" lengthAdjust="spacingAndGlyphs" textLength="45" x="582.5" y="163.9951">uWSGI</text><!--entity StaticWeb--><rect fill="#FEFECE" filter="url(#fri9sb5ymth9q)" height="46.2969" style="stroke: #A80036; stroke-width: 1.5;" width="109" x="844.5" y="131"/><rect fill="#FEFECE" height="10" style="stroke: #A80036; stroke-width: 1.5;" width="15" x="933.5" y="136"/><rect fill="#FEFECE" height="2" style="stroke: #A80036; stroke-width: 1.5;" width="4" x="931.5" y="138"/><rect fill="#FEFECE" height="2" style="stroke: #A80036; stroke-width: 1.5;" width="4" x="931.5" y="142"/><text fill="#000000" font-family="sans-serif" font-size="14" lengthAdjust="spacingAndGlyphs" textLength="69" x="859.5" y="163.9951">StaticWeb</text><!--entity Monstache--><rect fill="#FEFECE" filter="url(#fri9sb5ymth9q)" height="46.2969" style="stroke: #A80036; stroke-width: 1.5;" width="117" x="620.5" y="719"/><rect fill="#FEFECE" height="10" style="stroke: #A80036; stroke-width: 1.5;" width="15" x="717.5" y="724"/><rect fill="#FEFECE" height="2" style="stroke: #A80036; stroke-width: 1.5;" width="4" x="715.5" y="726"/><rect fill="#FEFECE" height="2" style="stroke: #A80036; stroke-width: 1.5;" width="4" x="715.5" y="730"/><text fill="#000000" font-family="sans-serif" font-size="14" lengthAdjust="spacingAndGlyphs" textLength="77" x="635.5" y="751.9951">Monstache</text><!--entity Elasticsearch--><rect fill="#FEFECE" filter="url(#fri9sb5ymth9q)" height="46.2969" style="stroke: #A80036; stroke-width: 1.5;" width="131" x="669.5" y="842"/><rect fill="#FEFECE" height="10" style="stroke: #A80036; stroke-width: 1.5;" width="15" x="780.5" y="847"/><rect fill="#FEFECE" height="2" style="stroke: #A80036; stroke-width: 1.5;" width="4" x="778.5" y="849"/><rect fill="#FEFECE" height="2" style="stroke: #A80036; stroke-width: 1.5;" width="4" x="778.5" y="853"/><text fill="#000000" font-family="sans-serif" font-size="14" lengthAdjust="spacingAndGlyphs" textLength="91" x="684.5" y="874.9951">Elasticsearch</text><!--link CRUDMethod to Authenticator--><path d="M309.4621,305.1138 C280.999,320.3818 244.6733,341.9637 216,366 C172.8811,402.1458 131.8242,453.4856 108.5863,484.6684 " fill="none" id="CRUDMethod-Authenticator" style="stroke: #A80036; stroke-width: 1.0; stroke-dasharray: 7.0,7.0;"/><polygon fill="#A80036" points="105.5655,488.7434,114.1386,483.8956,108.5432,484.7267,107.712,479.1313,105.5655,488.7434" style="stroke: #A80036; stroke-width: 1.0;"/><text fill="#000000" font-family="sans-serif" font-size="13" lengthAdjust="spacingAndGlyphs" textLength="81" x="217" y="393.5669">authenticate</text><!--link CRUDMethod to PrivilegeChecker--><path d="M347.0778,305.3194 C330.7621,347.9627 296.1858,438.3325 278.661,484.136 " fill="none" id="CRUDMethod-PrivilegeChecker" style="stroke: #A80036; stroke-width: 1.0; stroke-dasharray: 7.0,7.0;"/><polygon fill="#A80036" points="276.815,488.9609,283.7672,481.9847,278.6018,484.2911,276.2955,479.1258,276.815,488.9609" style="stroke: #A80036; stroke-width: 1.0;"/><text fill="#000000" font-family="sans-serif" font-size="13" lengthAdjust="spacingAndGlyphs" textLength="37" x="325" y="393.5669">check</text><!--link CRUDMethod to Validator--><path d="M363.5027,305.3194 C377.2228,347.9627 406.2983,438.3325 421.0351,484.136 " fill="none" id="CRUDMethod-Validator" style="stroke: #A80036; stroke-width: 1.0; stroke-dasharray: 7.0,7.0;"/><polygon fill="#A80036" points="422.5874,488.9609,423.6386,479.1683,421.056,484.2012,416.0231,481.6186,422.5874,488.9609" style="stroke: #A80036; stroke-width: 1.0;"/><text fill="#000000" font-family="sans-serif" font-size="13" lengthAdjust="spacingAndGlyphs" textLength="50" x="399" y="393.5669">validate</text><!--link Validator to JSONSchema--><path d="M430,535.3194 C430,577.8763 430,667.9668 430,713.8573 " fill="none" id="Validator-JSONSchema" style="stroke: #A80036; stroke-width: 1.0; stroke-dasharray: 7.0,7.0;"/><polygon fill="#A80036" points="430,718.9609,434,709.9609,430,713.9609,426,709.9609,430,718.9609" style="stroke: #A80036; stroke-width: 1.0;"/><text fill="#000000" font-family="sans-serif" font-size="13" lengthAdjust="spacingAndGlyphs" textLength="50" x="431" y="639.5669">validate</text><!--link CRUDMethod to DAO--><path d="M389.5737,305.3317 C410.6882,320.9981 437.6825,342.9316 458,366 C490.7995,403.2404 519.6699,453.4116 535.9643,484.1901 " fill="none" id="CRUDMethod-DAO" style="stroke: #A80036; stroke-width: 1.0; stroke-dasharray: 7.0,7.0;"/><polygon fill="#A80036" points="538.4702,488.9584,537.8243,479.1307,536.1442,484.5323,530.7426,482.8523,538.4702,488.9584" style="stroke: #A80036; stroke-width: 1.0;"/><text fill="#000000" font-family="sans-serif" font-size="13" lengthAdjust="spacingAndGlyphs" textLength="43" x="494" y="393.5669">persist</text><!--link GlobusClient to GlobusAPI--><path d="M551.293,305.2174 C572.6102,322.1133 601.508,345.0174 623.7015,362.6079 " fill="none" id="GlobusClient-GlobusAPI" style="stroke: #A80036; stroke-width: 1.0; stroke-dasharray: 7.0,7.0;"/><polygon fill="#A80036" points="627.7642,365.8279,623.1956,357.1028,623.8457,362.7222,618.2264,363.3723,627.7642,365.8279" style="stroke: #A80036; stroke-width: 1.0;"/><!--link Databroker to MongoDB--><path d="M679,535.1354 C679,555.4937 679,585.1907 679,606.908 " fill="none" id="Databroker-MongoDB" style="stroke: #A80036; stroke-width: 1.0;"/><polygon fill="#A80036" points="679,611.9684,683,602.9684,679,606.9684,675,602.9684,679,611.9684" style="stroke: #A80036; stroke-width: 1.0;"/><!--link NGINX to uWSGI--><path d="M754.4566,54.1588 C740.1874,63.3216 723.7435,74.0293 709,84 C687.9259,98.252 664.6846,114.649 646.0196,127.9891 " fill="none" id="NGINX-uWSGI" style="stroke: #A80036; stroke-width: 1.0; stroke-dasharray: 7.0,7.0;"/><polygon fill="#A80036" points="641.8661,130.9611,651.513,128.9769,645.9324,128.0515,646.8577,122.4709,641.8661,130.9611" style="stroke: #A80036; stroke-width: 1.0;"/><text fill="#000000" font-family="sans-serif" font-size="13" lengthAdjust="spacingAndGlyphs" textLength="54" x="710" y="97.0669">dispatch</text><!--link NGINX to StaticWeb--><path d="M811.314,54.1354 C829.4913,74.8373 856.1475,105.1958 875.2933,127.0007 " fill="none" id="NGINX-StaticWeb" style="stroke: #A80036; stroke-width: 1.0; stroke-dasharray: 7.0,7.0;"/><polygon fill="#A80036" points="878.7771,130.9684,875.8448,121.5662,875.4781,127.2112,869.8332,126.8445,878.7771,130.9684" style="stroke: #A80036; stroke-width: 1.0;"/><text fill="#000000" font-family="sans-serif" font-size="13" lengthAdjust="spacingAndGlyphs" textLength="35" x="852" y="97.0669">serve</text><!--link uWSGI to CRUDMethod--><path d="M567.4783,172.0039 C532.7197,187.078 482.5492,209.6567 440,232 C425.8254,239.4433 410.691,248.1905 397.2289,256.2699 " fill="none" id="uWSGI-CRUDMethod" style="stroke: #A80036; stroke-width: 1.0; stroke-dasharray: 7.0,7.0;"/><polygon fill="#A80036" points="392.7314,258.9814,402.5043,257.7602,397.0134,256.3998,398.3737,250.909,392.7314,258.9814" style="stroke: #A80036; stroke-width: 1.0;"/><text fill="#000000" font-family="sans-serif" font-size="13" lengthAdjust="spacingAndGlyphs" textLength="54" x="487" y="220.0669">dispatch</text><!--link DAO to MongoDB--><path d="M574.2639,535.1354 C596.0658,555.9232 628.0795,586.4479 650.9679,608.2717 " fill="none" id="DAO-MongoDB" style="stroke: #A80036; stroke-width: 1.0; stroke-dasharray: 7.0,7.0;"/><polygon fill="#A80036" points="654.8449,611.9684,651.0916,602.8628,651.2262,608.518,645.571,608.6526,654.8449,611.9684" style="stroke: #A80036; stroke-width: 1.0;"/><text fill="#000000" font-family="sans-serif" font-size="13" lengthAdjust="spacingAndGlyphs" textLength="36" x="623" y="578.0669">insert</text><!--link MongoDB to Monstache--><path d="M679,658.2174 C679,674.4823 679,696.3151 679,713.6155 " fill="none" id="MongoDB-Monstache" style="stroke: #A80036; stroke-width: 1.0; stroke-dasharray: 7.0,7.0;"/><polygon fill="#A80036" points="679,718.8279,683,709.8279,679,713.8279,675,709.8279,679,718.8279" style="stroke: #A80036; stroke-width: 1.0;"/><!--link Monstache to Elasticsearch--><path d="M689.5332,765.1354 C698.8411,785.5796 712.4368,815.4415 722.3351,837.1825 " fill="none" id="Monstache-Elasticsearch" style="stroke: #A80036; stroke-width: 1.0; stroke-dasharray: 7.0,7.0;"/><polygon fill="#A80036" points="724.5141,841.9684,724.4252,832.1199,722.4423,837.4179,717.1443,835.4349,724.5141,841.9684" style="stroke: #A80036; stroke-width: 1.0;"/><text fill="#000000" font-family="sans-serif" font-size="13" lengthAdjust="spacingAndGlyphs" textLength="36" x="711" y="808.0669">insert</text><!--link NGINX to Elasticsearch--><path d="M791,54.1232 C791,78.8448 791,119.1927 791,154 C791,154 791,154 791,742 C791,777.3415 771.6134,813.6759 755.6535,837.6 " fill="none" id="NGINX-Elasticsearch" style="stroke: #A80036; stroke-width: 1.0; stroke-dasharray: 7.0,7.0;"/><polygon fill="#A80036" points="752.7188,841.9197,761.0852,836.7232,755.5287,837.7839,754.468,832.2274,752.7188,841.9197" style="stroke: #A80036; stroke-width: 1.0;"/><text fill="#000000" font-family="sans-serif" font-size="13" lengthAdjust="spacingAndGlyphs" textLength="54" x="792" y="455.0669">dispatch</text><!--
@startuml Splash_Components
skinparam componentStyle uml2

frame "Flask"{
    [CRUDMethod] ..> [Authenticator]: authenticate
    [CRUDMethod] ..> [PrivilegeChecker] :check
    [CRUDMethod] ..> [Validator]: validate
    [Validator] ..> [JSONSchema]: validate
    [CRUDMethod] ..> [DAO]: persist

    [GlobusClient] 
}
[GlobusClient] ..> [GlobusAPI]
[Databroker] - -> [MongoDB]
[NGINX] ..> [uWSGI]: dispatch
[NGINX] ..> [StaticWeb]: serve
[uWSGI] ..> [CRUDMethod] : dispatch
[DAO] ..> [MongoDB] : insert
[MongoDB] ..> [Monstache]
[Monstache] ..> [Elasticsearch] : insert
[NGINX] ..> [Elasticsearch]: dispatch
@enduml

PlantUML version 1.2019.06(Fri May 24 10:10:25 PDT 2019)
(GPL source distribution)
Java Runtime: OpenJDK Runtime Environment
JVM: OpenJDK 64-Bit Server VM
Java Version: 11.0.3+7-Ubuntu-1ubuntu218.04.1
Operating System: Linux
OS Version: 4.18.0-25-generic
Default Encoding: UTF-8
Language: en
Country: US
--></g></svg>