<?xml version="1.0" encoding="UTF-8" standalone="no"?><svg xmlns="http://www.w3.org/2000/svg" xmlns:xlink="http://www.w3.org/1999/xlink" contentScriptType="application/ecmascript" contentStyleType="text/css" height="1006px" preserveAspectRatio="none" style="width:968px;height:1006px;" version="1.1" viewBox="0 0 968 1006" width="968px" zoomAndPan="magnify"><defs><filter height="300%" id="fbk0ac0ir1nsq" width="300%" x="-1" y="-1"><feGaussianBlur result="blurOut" stdDeviation="2.0"/><feColorMatrix in="blurOut" result="blurOut2" type="matrix" values="0 0 0 0 0 0 0 0 0 0 0 0 0 0 0 0 0 0 .4 0"/><feOffset dx="4.0" dy="4.0" in="blurOut2" result="blurOut3"/><feBlend in="SourceGraphic" in2="blurOut3" mode="normal"/></filter></defs><g><!--cluster Flask--><rect fill="#FFFFFF" filter="url(#fbk0ac0ir1nsq)" height="541" style="stroke: #000000; stroke-width: 1.5;" width="708" x="14" y="339"/><path d="M64,340 L64,348.2969 L54,358.2969 L14,358.2969 " fill="none" style="stroke: #000000; stroke-width: 1.5;"/><text fill="#000000" font-family="sans-serif" font-size="14" font-weight="bold" lengthAdjust="spacingAndGlyphs" textLength="40" x="17" y="352.9951">Flask</text><!--entity CRUDMethod--><rect fill="#FEFECE" filter="url(#fbk0ac0ir1nsq)" height="46.2969" style="stroke: #A80036; stroke-width: 1.5;" width="134" x="376" y="366"/><rect fill="#FEFECE" height="10" style="stroke: #A80036; stroke-width: 1.5;" width="15" x="490" y="371"/><rect fill="#FEFECE" height="2" style="stroke: #A80036; stroke-width: 1.5;" width="4" x="488" y="373"/><rect fill="#FEFECE" height="2" style="stroke: #A80036; stroke-width: 1.5;" width="4" x="488" y="377"/><text fill="#000000" font-family="sans-serif" font-size="14" lengthAdjust="spacingAndGlyphs" textLength="94" x="391" y="398.9951">CRUDMethod</text><!--entity Authenticator--><rect fill="#FEFECE" filter="url(#fbk0ac0ir1nsq)" height="46.2969" style="stroke: #A80036; stroke-width: 1.5;" width="133" x="22.5" y="596"/><rect fill="#FEFECE" height="10" style="stroke: #A80036; stroke-width: 1.5;" width="15" x="135.5" y="601"/><rect fill="#FEFECE" height="2" style="stroke: #A80036; stroke-width: 1.5;" width="4" x="133.5" y="603"/><rect fill="#FEFECE" height="2" style="stroke: #A80036; stroke-width: 1.5;" width="4" x="133.5" y="607"/><text fill="#000000" font-family="sans-serif" font-size="14" lengthAdjust="spacingAndGlyphs" textLength="93" x="37.5" y="628.9951">Authenticator</text><!--entity PrivilegeChecker--><rect fill="#FEFECE" filter="url(#fbk0ac0ir1nsq)" height="46.2969" style="stroke: #A80036; stroke-width: 1.5;" width="155" x="190.5" y="596"/><rect fill="#FEFECE" height="10" style="stroke: #A80036; stroke-width: 1.5;" width="15" x="325.5" y="601"/><rect fill="#FEFECE" height="2" style="stroke: #A80036; stroke-width: 1.5;" width="4" x="323.5" y="603"/><rect fill="#FEFECE" height="2" style="stroke: #A80036; stroke-width: 1.5;" width="4" x="323.5" y="607"/><text fill="#000000" font-family="sans-serif" font-size="14" lengthAdjust="spacingAndGlyphs" textLength="115" x="205.5" y="628.9951">PrivilegeChecker</text><!--entity Validator--><rect fill="#FEFECE" filter="url(#fbk0ac0ir1nsq)" height="46.2969" style="stroke: #A80036; stroke-width: 1.5;" width="99" x="380.5" y="596"/><rect fill="#FEFECE" height="10" style="stroke: #A80036; stroke-width: 1.5;" width="15" x="459.5" y="601"/><rect fill="#FEFECE" height="2" style="stroke: #A80036; stroke-width: 1.5;" width="4" x="457.5" y="603"/><rect fill="#FEFECE" height="2" style="stroke: #A80036; stroke-width: 1.5;" width="4" x="457.5" y="607"/><text fill="#000000" font-family="sans-serif" font-size="14" lengthAdjust="spacingAndGlyphs" textLength="59" x="395.5" y="628.9951">Validator</text><!--entity Mapper--><rect fill="#FEFECE" filter="url(#fbk0ac0ir1nsq)" height="46.2969" style="stroke: #A80036; stroke-width: 1.5;" width="92" x="515" y="596"/><rect fill="#FEFECE" height="10" style="stroke: #A80036; stroke-width: 1.5;" width="15" x="587" y="601"/><rect fill="#FEFECE" height="2" style="stroke: #A80036; stroke-width: 1.5;" width="4" x="585" y="603"/><rect fill="#FEFECE" height="2" style="stroke: #A80036; stroke-width: 1.5;" width="4" x="585" y="607"/><text fill="#000000" font-family="sans-serif" font-size="14" lengthAdjust="spacingAndGlyphs" textLength="52" x="530" y="628.9951">Mapper</text><!--entity JSONSchema--><rect fill="#FEFECE" filter="url(#fbk0ac0ir1nsq)" height="46.2969" style="stroke: #A80036; stroke-width: 1.5;" width="129" x="365.5" y="826"/><rect fill="#FEFECE" height="10" style="stroke: #A80036; stroke-width: 1.5;" width="15" x="474.5" y="831"/><rect fill="#FEFECE" height="2" style="stroke: #A80036; stroke-width: 1.5;" width="4" x="472.5" y="833"/><rect fill="#FEFECE" height="2" style="stroke: #A80036; stroke-width: 1.5;" width="4" x="472.5" y="837"/><text fill="#000000" font-family="sans-serif" font-size="14" lengthAdjust="spacingAndGlyphs" textLength="89" x="380.5" y="858.9951">JSONSchema</text><!--entity DAO--><rect fill="#FEFECE" filter="url(#fbk0ac0ir1nsq)" height="46.2969" style="stroke: #A80036; stroke-width: 1.5;" width="71" x="642.5" y="596"/><rect fill="#FEFECE" height="10" style="stroke: #A80036; stroke-width: 1.5;" width="15" x="693.5" y="601"/><rect fill="#FEFECE" height="2" style="stroke: #A80036; stroke-width: 1.5;" width="4" x="691.5" y="603"/><rect fill="#FEFECE" height="2" style="stroke: #A80036; stroke-width: 1.5;" width="4" x="691.5" y="607"/><text fill="#000000" font-family="sans-serif" font-size="14" lengthAdjust="spacingAndGlyphs" textLength="31" x="657.5" y="628.9951">DAO</text><!--entity GlobusClient--><rect fill="#FEFECE" filter="url(#fbk0ac0ir1nsq)" height="46.2969" style="stroke: #A80036; stroke-width: 1.5;" width="128" x="586" y="366"/><rect fill="#FEFECE" height="10" style="stroke: #A80036; stroke-width: 1.5;" width="15" x="694" y="371"/><rect fill="#FEFECE" height="2" style="stroke: #A80036; stroke-width: 1.5;" width="4" x="692" y="373"/><rect fill="#FEFECE" height="2" style="stroke: #A80036; stroke-width: 1.5;" width="4" x="692" y="377"/><text fill="#000000" font-family="sans-serif" font-size="14" lengthAdjust="spacingAndGlyphs" textLength="88" x="601" y="398.9951">GlobusClient</text><!--entity GlobusAPI--><rect fill="#FEFECE" filter="url(#fbk0ac0ir1nsq)" height="46.2969" style="stroke: #A80036; stroke-width: 1.5;" width="110" x="738" y="473"/><rect fill="#FEFECE" height="10" style="stroke: #A80036; stroke-width: 1.5;" width="15" x="828" y="478"/><rect fill="#FEFECE" height="2" style="stroke: #A80036; stroke-width: 1.5;" width="4" x="826" y="480"/><rect fill="#FEFECE" height="2" style="stroke: #A80036; stroke-width: 1.5;" width="4" x="826" y="484"/><text fill="#000000" font-family="sans-serif" font-size="14" lengthAdjust="spacingAndGlyphs" textLength="70" x="753" y="505.9951">GlobusAPI</text><!--entity Databroker--><rect fill="#FEFECE" filter="url(#fbk0ac0ir1nsq)" height="46.2969" style="stroke: #A80036; stroke-width: 1.5;" width="117" x="707.5" y="8"/><rect fill="#FEFECE" height="10" style="stroke: #A80036; stroke-width: 1.5;" width="15" x="804.5" y="13"/><rect fill="#FEFECE" height="2" style="stroke: #A80036; stroke-width: 1.5;" width="4" x="802.5" y="15"/><rect fill="#FEFECE" height="2" style="stroke: #A80036; stroke-width: 1.5;" width="4" x="802.5" y="19"/><text fill="#000000" font-family="sans-serif" font-size="14" lengthAdjust="spacingAndGlyphs" textLength="77" x="722.5" y="40.9951">Databroker</text><!--entity NGINX--><rect fill="#FEFECE" filter="url(#fbk0ac0ir1nsq)" height="46.2969" style="stroke: #A80036; stroke-width: 1.5;" width="83" x="724.5" y="115"/><rect fill="#FEFECE" height="10" style="stroke: #A80036; stroke-width: 1.5;" width="15" x="787.5" y="120"/><rect fill="#FEFECE" height="2" style="stroke: #A80036; stroke-width: 1.5;" width="4" x="785.5" y="122"/><rect fill="#FEFECE" height="2" style="stroke: #A80036; stroke-width: 1.5;" width="4" x="785.5" y="126"/><text fill="#000000" font-family="sans-serif" font-size="14" lengthAdjust="spacingAndGlyphs" textLength="43" x="739.5" y="147.9951">NGINX</text><!--entity uWSGI--><rect fill="#FEFECE" filter="url(#fbk0ac0ir1nsq)" height="46.2969" style="stroke: #A80036; stroke-width: 1.5;" width="85" x="537.5" y="238"/><rect fill="#FEFECE" height="10" style="stroke: #A80036; stroke-width: 1.5;" width="15" x="602.5" y="243"/><rect fill="#FEFECE" height="2" style="stroke: #A80036; stroke-width: 1.5;" width="4" x="600.5" y="245"/><rect fill="#FEFECE" height="2" style="stroke: #A80036; stroke-width: 1.5;" width="4" x="600.5" y="249"/><text fill="#000000" font-family="sans-serif" font-size="14" lengthAdjust="spacingAndGlyphs" textLength="45" x="552.5" y="270.9951">uWSGI</text><!--entity StaticWeb--><rect fill="#FEFECE" filter="url(#fbk0ac0ir1nsq)" height="46.2969" style="stroke: #A80036; stroke-width: 1.5;" width="109" x="711.5" y="238"/><rect fill="#FEFECE" height="10" style="stroke: #A80036; stroke-width: 1.5;" width="15" x="800.5" y="243"/><rect fill="#FEFECE" height="2" style="stroke: #A80036; stroke-width: 1.5;" width="4" x="798.5" y="245"/><rect fill="#FEFECE" height="2" style="stroke: #A80036; stroke-width: 1.5;" width="4" x="798.5" y="249"/><text fill="#000000" font-family="sans-serif" font-size="14" lengthAdjust="spacingAndGlyphs" textLength="69" x="726.5" y="270.9951">StaticWeb</text><!--entity MongoDB--><rect fill="#FEFECE" filter="url(#fbk0ac0ir1nsq)" height="46.2969" style="stroke: #A80036; stroke-width: 1.5;" width="109" x="731.5" y="719"/><rect fill="#FEFECE" height="10" style="stroke: #A80036; stroke-width: 1.5;" width="15" x="820.5" y="724"/><rect fill="#FEFECE" height="2" style="stroke: #A80036; stroke-width: 1.5;" width="4" x="818.5" y="726"/><rect fill="#FEFECE" height="2" style="stroke: #A80036; stroke-width: 1.5;" width="4" x="818.5" y="730"/><text fill="#000000" font-family="sans-serif" font-size="14" lengthAdjust="spacingAndGlyphs" textLength="69" x="746.5" y="751.9951">MongoDB</text><!--entity Monstache--><rect fill="#FEFECE" filter="url(#fbk0ac0ir1nsq)" height="46.2969" style="stroke: #A80036; stroke-width: 1.5;" width="117" x="730.5" y="826"/><rect fill="#FEFECE" height="10" style="stroke: #A80036; stroke-width: 1.5;" width="15" x="827.5" y="831"/><rect fill="#FEFECE" height="2" style="stroke: #A80036; stroke-width: 1.5;" width="4" x="825.5" y="833"/><rect fill="#FEFECE" height="2" style="stroke: #A80036; stroke-width: 1.5;" width="4" x="825.5" y="837"/><text fill="#000000" font-family="sans-serif" font-size="14" lengthAdjust="spacingAndGlyphs" textLength="77" x="745.5" y="858.9951">Monstache</text><!--entity Elasticsearch--><rect fill="#FEFECE" filter="url(#fbk0ac0ir1nsq)" height="46.2969" style="stroke: #A80036; stroke-width: 1.5;" width="131" x="779.5" y="949"/><rect fill="#FEFECE" height="10" style="stroke: #A80036; stroke-width: 1.5;" width="15" x="890.5" y="954"/><rect fill="#FEFECE" height="2" style="stroke: #A80036; stroke-width: 1.5;" width="4" x="888.5" y="956"/><rect fill="#FEFECE" height="2" style="stroke: #A80036; stroke-width: 1.5;" width="4" x="888.5" y="960"/><text fill="#000000" font-family="sans-serif" font-size="14" lengthAdjust="spacingAndGlyphs" textLength="91" x="794.5" y="981.9951">Elasticsearch</text><!--link CRUDMethod to Authenticator--><path d="M378.376,412.0151 C340.6514,426.8195 292.9646,447.9532 254,473 C199.5826,507.9799 145.0519,560.4631 114.3081,592.0557 " fill="none" id="CRUDMethod-Authenticator" style="stroke: #A80036; stroke-width: 1.0; stroke-dasharray: 7.0,7.0;"/><polygon fill="#A80036" points="110.6784,595.8023,119.8136,592.1214,114.1574,592.2111,114.0677,586.555,110.6784,595.8023" style="stroke: #A80036; stroke-width: 1.0;"/><text fill="#000000" font-family="sans-serif" font-size="13" lengthAdjust="spacingAndGlyphs" textLength="81" x="255" y="500.5669">authenticate</text><!--link CRUDMethod to PrivilegeChecker--><path d="M425.3363,412.1703 C412.481,429.0364 394.656,452.4294 379,473 C347.4783,514.4165 310.9556,562.4678 288.6699,591.7951 " fill="none" id="CRUDMethod-PrivilegeChecker" style="stroke: #A80036; stroke-width: 1.0; stroke-dasharray: 7.0,7.0;"/><polygon fill="#A80036" points="285.4875,595.9832,294.1176,591.2375,288.5127,592.0022,287.748,586.3973,285.4875,595.9832" style="stroke: #A80036; stroke-width: 1.0;"/><text fill="#000000" font-family="sans-serif" font-size="13" lengthAdjust="spacingAndGlyphs" textLength="37" x="380" y="500.5669">check</text><!--link CRUDMethod to Validator--><path d="M438.1037,412.0465 C434.7918,428.8526 430.7194,452.2249 429,473 C425.6245,513.7849 426.9044,561.1968 428.3102,590.6548 " fill="none" id="CRUDMethod-Validator" style="stroke: #A80036; stroke-width: 1.0; stroke-dasharray: 7.0,7.0;"/><polygon fill="#A80036" points="428.5731,595.9407,432.121,586.7531,428.3247,590.9469,424.1309,587.1506,428.5731,595.9407" style="stroke: #A80036; stroke-width: 1.0;"/><text fill="#000000" font-family="sans-serif" font-size="13" lengthAdjust="spacingAndGlyphs" textLength="50" x="430" y="500.5669">validate</text><!--link CRUDMethod to Mapper--><path d="M454.9638,412.3194 C476.886,455.049 523.3932,545.6985 546.847,591.4136 " fill="none" id="CRUDMethod-Mapper" style="stroke: #A80036; stroke-width: 1.0; stroke-dasharray: 7.0,7.0;"/><polygon fill="#A80036" points="549.1799,595.9609,548.6305,586.1274,546.8975,591.5122,541.5126,589.7792,549.1799,595.9609" style="stroke: #A80036; stroke-width: 1.0;"/><text fill="#000000" font-family="sans-serif" font-size="13" lengthAdjust="spacingAndGlyphs" textLength="62" x="510" y="500.5669">map data</text><!--link Validator to JSONSchema--><path d="M430,642.3194 C430,684.8763 430,774.9668 430,820.8573 " fill="none" id="Validator-JSONSchema" style="stroke: #A80036; stroke-width: 1.0; stroke-dasharray: 7.0,7.0;"/><polygon fill="#A80036" points="430,825.9609,434,816.9609,430,820.9609,426,816.9609,430,825.9609" style="stroke: #A80036; stroke-width: 1.0;"/><text fill="#000000" font-family="sans-serif" font-size="13" lengthAdjust="spacingAndGlyphs" textLength="50" x="431" y="746.5669">validate</text><!--link CRUDMethod to DAO--><path d="M492.2589,412.1686 C520.3464,426.9581 555.015,448.0249 581,473 C617.7006,508.2742 647.8538,559.7855 664.3468,591.2547 " fill="none" id="CRUDMethod-DAO" style="stroke: #A80036; stroke-width: 1.0; stroke-dasharray: 7.0,7.0;"/><polygon fill="#A80036" points="666.6802,595.7479,666.0821,585.9172,664.3758,591.3106,658.9824,589.6043,666.6802,595.7479" style="stroke: #A80036; stroke-width: 1.0;"/><text fill="#000000" font-family="sans-serif" font-size="13" lengthAdjust="spacingAndGlyphs" textLength="43" x="620" y="500.5669">persist</text><!--link GlobusClient to GlobusAPI--><path d="M681.0289,412.2174 C703.703,429.1834 734.4737,452.2076 758.0205,469.8266 " fill="none" id="GlobusClient-GlobusAPI" style="stroke: #A80036; stroke-width: 1.0; stroke-dasharray: 7.0,7.0;"/><polygon fill="#A80036" points="762.0317,472.8279,757.2222,464.2332,758.0284,469.8323,752.4293,470.6385,762.0317,472.8279" style="stroke: #A80036; stroke-width: 1.0;"/><!--link Databroker to NGINX--><path d="M766,54.2174 C766,70.4823 766,92.3151 766,109.6155 " fill="none" id="Databroker-NGINX" style="stroke: #A80036; stroke-width: 1.0;"/><polygon fill="#A80036" points="766,114.8279,770,105.8279,766,109.8279,762,105.8279,766,114.8279" style="stroke: #A80036; stroke-width: 1.0;"/><!--link NGINX to uWSGI--><path d="M731.0148,161.1354 C699.1898,182.1809 652.2735,213.2062 619.1972,235.0793 " fill="none" id="NGINX-uWSGI" style="stroke: #A80036; stroke-width: 1.0; stroke-dasharray: 7.0,7.0;"/><polygon fill="#A80036" points="614.8283,237.9684,624.5417,236.3405,618.9989,235.2104,620.1289,229.6676,614.8283,237.9684" style="stroke: #A80036; stroke-width: 1.0;"/><text fill="#000000" font-family="sans-serif" font-size="13" lengthAdjust="spacingAndGlyphs" textLength="54" x="685" y="204.0669">dispatch</text><!--link NGINX to StaticWeb--><path d="M766,161.1354 C766,181.4937 766,211.1907 766,232.908 " fill="none" id="NGINX-StaticWeb" style="stroke: #A80036; stroke-width: 1.0; stroke-dasharray: 7.0,7.0;"/><polygon fill="#A80036" points="766,237.9684,770,228.9684,766,232.9684,762,228.9684,766,237.9684" style="stroke: #A80036; stroke-width: 1.0;"/><text fill="#000000" font-family="sans-serif" font-size="13" lengthAdjust="spacingAndGlyphs" textLength="35" x="767" y="204.0669">serve</text><!--link uWSGI to CRUDMethod--><path d="M555.1903,284.1798 C531.6222,306.1997 496.2114,339.2842 471.4964,362.3756 " fill="none" id="uWSGI-CRUDMethod" style="stroke: #A80036; stroke-width: 1.0; stroke-dasharray: 7.0,7.0;"/><polygon fill="#A80036" points="467.6251,365.9926,476.9321,362.7709,471.2785,362.579,471.4704,356.9254,467.6251,365.9926" style="stroke: #A80036; stroke-width: 1.0;"/><text fill="#000000" font-family="sans-serif" font-size="13" lengthAdjust="spacingAndGlyphs" textLength="54" x="520" y="327.0669">dispatch</text><!--link DAO to MongoDB--><path d="M698.314,642.1354 C716.4913,662.8373 743.1475,693.1958 762.2933,715.0007 " fill="none" id="DAO-MongoDB" style="stroke: #A80036; stroke-width: 1.0; stroke-dasharray: 7.0,7.0;"/><polygon fill="#A80036" points="765.7771,718.9684,762.8448,709.5662,762.4781,715.2112,756.8332,714.8445,765.7771,718.9684" style="stroke: #A80036; stroke-width: 1.0;"/><text fill="#000000" font-family="sans-serif" font-size="13" lengthAdjust="spacingAndGlyphs" textLength="36" x="739" y="685.0669">insert</text><!--link MongoDB to Monstache--><path d="M786.651,765.2174 C787.107,781.4823 787.7191,803.3151 788.2042,820.6155 " fill="none" id="MongoDB-Monstache" style="stroke: #A80036; stroke-width: 1.0; stroke-dasharray: 7.0,7.0;"/><polygon fill="#A80036" points="788.3503,825.8279,792.0965,816.7193,788.2102,820.8299,784.0996,816.9436,788.3503,825.8279" style="stroke: #A80036; stroke-width: 1.0;"/><!--link Monstache to Elasticsearch--><path d="M799.5332,872.1354 C808.8411,892.5796 822.4368,922.4415 832.3351,944.1825 " fill="none" id="Monstache-Elasticsearch" style="stroke: #A80036; stroke-width: 1.0; stroke-dasharray: 7.0,7.0;"/><polygon fill="#A80036" points="834.5141,948.9684,834.4252,939.1199,832.4423,944.4179,827.1443,942.4349,834.5141,948.9684" style="stroke: #A80036; stroke-width: 1.0;"/><text fill="#000000" font-family="sans-serif" font-size="13" lengthAdjust="spacingAndGlyphs" textLength="36" x="821" y="915.0669">insert</text><!--link NGINX to Elasticsearch--><path d="M807.606,154.9748 C847.2722,174.2433 901,209.7936 901,261 C901,261 901,261 901,849 C901,884.3415 881.6134,920.6759 865.6535,944.6 " fill="none" id="NGINX-Elasticsearch" style="stroke: #A80036; stroke-width: 1.0; stroke-dasharray: 7.0,7.0;"/><polygon fill="#A80036" points="862.7188,948.9197,871.0852,943.7232,865.5287,944.7839,864.468,939.2274,862.7188,948.9197" style="stroke: #A80036; stroke-width: 1.0;"/><text fill="#000000" font-family="sans-serif" font-size="13" lengthAdjust="spacingAndGlyphs" textLength="54" x="902" y="562.0669">dispatch</text><!--
@startuml Splash_Components
skinparam componentStyle uml2

frame "Flask"{
    [CRUDMethod] ..> [Authenticator]: authenticate
    [CRUDMethod] ..> [PrivilegeChecker] :check
    [CRUDMethod] ..> [Validator]: validate
    [CRUDMethod] ..> [Mapper]: map data
    [Validator] ..> [JSONSchema]: validate
    [CRUDMethod] ..> [DAO]: persist
    
    [GlobusClient] 
}
[GlobusClient] ..> [GlobusAPI]
[Databroker] - -> [NGINX]
[NGINX] ..> [uWSGI]: dispatch
[NGINX] ..> [StaticWeb]: serve
[uWSGI] ..> [CRUDMethod] : dispatch
[DAO] ..> [MongoDB] : insert
[MongoDB] ..> [Monstache]
[Monstache] ..> [Elasticsearch] : insert
[NGINX] ..> [Elasticsearch]: dispatch

@enduml

PlantUML version 1.2019.06(Fri May 24 10:10:25 PDT 2019)
(GPL source distribution)
Java Runtime: OpenJDK Runtime Environment
JVM: OpenJDK 64-Bit Server VM
Java Version: 11.0.3+7-Ubuntu-1ubuntu218.04.1
Operating System: Linux
OS Version: 4.18.0-25-generic
Default Encoding: UTF-8
Language: en
Country: US
--></g></svg>